<svg xmlns="http://www.w3.org/2000/svg" viewBox="0 0 154.4 195.3"><title>htmlРесурс 2</title><g id="Слой_2" data-name="Слой 2"><g id="Layer_1" data-name="Layer 1"><path d="M78,.6h-.8L.5,8.5V149.1l76.7,45.6,76.7-45.6V8.5Zm65.9,142.8L77.2,183.1,10.5,143.4V85.8l66.4,39.5v7.2L31.5,105.4v6.9l45.7,27.5v7.3L31.5,119.9v7l45.7,27.5,46.1-27.6v-7h0V97.1l20.6-12.3Zm-.1-66.1L125.6,88.1l-8.5,5L77,69.2v6.9l34.3,20.4-.3.2-.7.4-4.9,2.9L77,83.2v6.9l22.4,13.3L94,106.9h-.1L77,97.1V104L88,110.5l-11.3,6.8-66-39.2L76.8,38.3h0Zm.1-6.9L76.8,30.8h0L10.5,70.3V17.6l66.7-7,66.7,7Z" style="stroke:#231f20;stroke-miterlimit:10"/></g></g></svg>