<?xml version="1.0" encoding="utf-8"?>
<svg xmlns="http://www.w3.org/2000/svg" xmlns:xlink="http://www.w3.org/1999/xlink">
	<symbol id="apple" viewBox="0 0 46.2 56.8" >
		<path id="apple" fill="#FFFFFF" d="M38.6,30.1c0.1,8.6,7.5,11.4,7.6,11.5c-0.1,0.2-1.2,4.1-3.9,8.1c-2.4,3.5-4.8,6.9-8.7,7
	c-3.8,0.1-5-2.3-9.4-2.3c-4.3,0-5.7,2.2-9.3,2.3c-3.7,0.1-6.6-3.7-9-7.2c-4.9-7-8.6-19.9-3.6-28.6c2.5-4.3,6.9-7,11.7-7.1
	c3.7-0.1,7.1,2.5,9.4,2.5c2.2,0,6.4-3,10.9-2.6c1.9,0.1,7,0.7,10.4,5.6C44.5,19.5,38.5,23,38.6,30.1 M31.5,9.1c2-2.4,3.3-5.7,3-9.1
	c-2.9,0.1-6.3,1.9-8.4,4.3c-1.8,2.1-3.4,5.5-3,8.8C26.2,13.3,29.5,11.5,31.5,9.1"/>
	</symbol>
	<symbol id="android" viewBox="0 0 42.1 47">
		<path fill="#A4C639" d="M34.1,14H7.9c0,0.1,0,0.2,0,0.3v18.8c0,1.9,1.5,3.5,3.3,3.6v7.4c0,1.6,1.3,2.9,2.9,2.9
	c1.6,0,2.9-1.3,2.9-2.9v-7.4h8.1v7.4c0,1.6,1.3,2.9,2.9,2.9c1.6,0,2.9-1.3,2.9-2.9v-7.4c1.9-0.1,3.3-1.7,3.3-3.6V14.3
	C34.2,14.2,34.2,14.1,34.1,14z"/>
<path id="c-4-9-2-9-2-9" fill="#A4C639" d="M2.9,15.7L2.9,15.7c1.6,0,2.9,1.3,2.9,2.9v12.4c0,1.6-1.3,2.9-2.9,2.9l0,0
	c-1.6,0-2.9-1.3-2.9-2.9V18.6C0,17,1.3,15.7,2.9,15.7z"/>
<path id="c-4-1-7-3-8-4" fill="#A4C639" d="M39.2,15.7L39.2,15.7c1.6,0,2.9,1.3,2.9,2.9v12.4c0,1.6-1.3,2.9-2.9,2.9l0,0
	c-1.6,0-2.9-1.3-2.9-2.9V18.6C36.3,17,37.6,15.7,39.2,15.7z"/>
<path fill="#A4C639" d="M8,12h26c0-2.8-1.2-5.3-3.2-7.3l2.4-4.2c0.1-0.1,0-0.3-0.1-0.4c-0.1-0.1-0.3,0-0.4,0.1l-2.4,4.1
	c-2.1-1.9-6.2-3.4-9.4-3.4l0,0c-3,0-7.3,1.5-9.4,3.4L9.3,0.2C9.2,0,9,0,8.9,0C8.7,0.1,8.7,0.3,8.8,0.5l2.4,4.2C9.3,6.6,8.1,9.2,8,12
	z M25.3,6.8c0-0.8,0.7-1.5,1.5-1.5c0.8,0,1.5,0.6,1.5,1.5c0,0,0,0,0,0c0,0.8-0.7,1.5-1.5,1.5C26,8.3,25.3,7.6,25.3,6.8
	C25.3,6.8,25.3,6.8,25.3,6.8z M14.2,6.8c0-0.8,0.7-1.5,1.5-1.5c0.8,0,1.5,0.6,1.5,1.5c0,0,0,0,0,0c0,0.8-0.7,1.5-1.5,1.5
	C14.9,8.3,14.2,7.6,14.2,6.8C14.2,6.8,14.2,6.8,14.2,6.8z"/>
	</symbol>
	<symbol id="microsoft" viewBox="0 0 43.9 42">
		<path id="path5058" fill="#F05423" d="M20.9,20H0V0h20.9V20z"/>
	<path id="path5060" fill="#84C441" d="M43.9,20H23V0h20.9V20z"/>
	<path id="path5062" fill="#2DABE2" d="M20.9,42H0V22h20.9V42z"/>
	<path id="path5064" fill="#F9BC15" d="M43.9,42H23V22h20.9V42z"/>
	</symbol>
</svg>